<svg xmlns="http://www.w3.org/2000/svg" xmlns:xlink="http://www.w3.org/1999/xlink" viewBox="0 0 270.933 270.933" height="1024" width="1024"><defs><linearGradient id="h"><stop offset="0" stop-color="#333"/><stop offset="1" stop-color="#333" stop-opacity="0"/></linearGradient><linearGradient id="g"><stop offset="0"/><stop offset="1" stop-opacity="0"/></linearGradient><linearGradient id="e"><stop offset="0" stop-color="#fefefc"/><stop offset=".757" stop-color="#fefefc"/><stop offset="1" stop-color="#d4d4d4"/></linearGradient><radialGradient xlink:href="#e" id="a" gradientUnits="userSpaceOnUse" gradientTransform="matrix(1.08578 -.03431 .03944 1.24799 -154.542 -26.543)" cx="223.196" cy="137.661" fx="223.196" fy="137.661" r="14.572"/><radialGradient xlink:href="#e" id="b" gradientUnits="userSpaceOnUse" gradientTransform="matrix(.81524 -.03431 .02961 1.24799 -129.437 -26.543)" cx="223.196" cy="137.661" fx="223.196" fy="137.661" r="14.572"/><linearGradient id="f"><stop offset="0" stop-color="#3e2a06"/><stop offset="1" stop-color="#ad780a"/></linearGradient><linearGradient y2="293.585" x2="490.122" y1="371.544" x1="442.039" gradientTransform="matrix(.87491 0 0 .81149 60.367 62.587)" gradientUnits="userSpaceOnUse" id="d" xlink:href="#f"/><linearGradient y2="293.585" x2="490.122" y1="371.544" x1="442.039" gradientUnits="userSpaceOnUse" id="c" xlink:href="#f"/><linearGradient xlink:href="#g" id="j" x1="151.052" y1="161.533" x2="171.797" y2="161.533" gradientUnits="userSpaceOnUse"/><linearGradient xlink:href="#h" id="i" x1="151.052" y1="161.533" x2="171.797" y2="161.533" gradientUnits="userSpaceOnUse"/></defs><path d="M259.987 201.069c-.002-.002-.005-.005-.005-.007-1.579-1.782-2.331-5.087-3.14-8.607-.807-3.518-1.71-7.312-4.598-9.77l-.018-.017c-.573-.5-1.16-.92-1.751-1.272a11.431 11.431 0 0 0-1.795-.864c4.015-11.906 2.44-23.763-1.614-34.476-4.972-13.15-13.655-24.606-20.287-32.443-7.423-9.365-14.683-18.253-14.54-31.383.221-20.037 2.204-57.196-33.058-57.245a54.983 54.983 0 0 0-4.488.182c-39.404 3.172-28.952 44.803-29.538 58.742-.72 10.194-2.786 18.23-9.799 28.195-8.235 9.793-19.834 25.647-25.327 42.151-2.592 7.788-3.825 15.726-2.688 23.24-.357.32-.695.657-1.02 1-2.417 2.584-4.205 5.711-6.195 7.816-1.86 1.858-4.51 2.563-7.424 3.607-2.914 1.046-6.112 2.586-8.053 6.312 0 0 0 .003-.002.003-.003.005-.006.013-.01.018-.914 1.704-1.21 3.544-1.21 5.41 0 1.724.254 3.473.512 5.156.536 3.503 1.08 6.815.359 9.058-2.305 6.304-2.602 10.663-.978 13.827 1.628 3.169 4.972 4.566 8.753 5.357 7.56 1.577 17.8 1.187 25.868 5.464l.695-1.308-.687 1.311c8.639 4.517 17.397 6.12 24.383 4.525 5.069-1.155 9.18-4.173 11.293-8.816 5.464-.026 11.461-2.341 21.068-2.87 6.518-.525 14.66 2.316 24.024 1.796a12.788 12.788 0 0 0 1.082 2.922l.016.026c3.63 7.26 10.374 10.58 17.563 10.012 7.197-.567 14.85-4.81 21.037-12.172l-1.135-.952 1.143.942c5.896-7.15 15.682-10.114 22.174-14.027 3.244-1.957 5.875-4.408 6.08-7.968.203-3.556-1.886-7.543-6.69-12.874z" fill="#5458af"/><g fill="#fff"><path d="M215.736 172.504c-.073.398-.133.807-.177 1.218-.64.224-1.28.505-1.926.856-4.01 2.196-6.2 6.177-7.418 11.064-1.215 4.88-1.566 10.78-1.9 17.412v.005c-.205 3.334-1.579 7.845-2.968 12.623-13.994 9.983-33.415 14.307-49.906 3.051-1.116-1.766-2.399-3.517-3.718-5.245a230.367 230.367 0 0 0-2.568-3.281c1.691.002-2.925-1.724-1.762-2.25 1.447-.658-.566-1.446-.061-2.799 1.004-2.703 5.655-5.728 2.436-10.086-3.218-4.356-5.247-8.876-13.256-13.789v-.002c-5.886-3.66-9.175-8.147-10.715-13.017-1.543-4.874-1.327-10.143-.138-15.344 2.28-9.984 8.134-19.694 11.87-25.788 1.005-.74.36 1.374-3.783 9.065-3.71 7.03-10.65 23.256-1.15 35.923.255-9.013 2.407-18.206 6.02-26.806 5.265-11.93 16.274-32.623 17.148-49.114.453.328 2 1.374 2.69 1.767.002.002.002.002.006.002 2.019 1.189 3.536 2.927 5.5 4.506 1.97 1.582 4.429 2.948 8.144 3.164.357.021.705.031 1.046.031 3.83 0 6.817-1.249 9.305-2.672 2.703-1.545 4.863-3.257 6.91-3.924.003-.002.006-.002.008-.002 4.327-1.353 7.764-3.746 9.72-6.536 3.363 13.25 11.179 32.387 16.204 41.725 2.672 4.954 8.915 18.181 10.28 28.166.71 4.755-5.135 6.26-5.841 10.077zM195.094 70.006c.021 2.625-.432 4.86-1.428 7.142-.567 1.301-1.22 2.394-2.003 3.34-.266-.127-.542-.249-.828-.366a65.766 65.766 0 0 0-2.654-1.07c-.786-.296-1.4-.499-2.032-.717.458-.554 1.361-1.208 1.697-2.027.51-1.236.76-2.443.807-3.882 0-.058.018-.107.018-.175.028-1.379-.154-2.557-.557-3.765-.421-1.267-.958-2.178-1.733-2.935-.778-.757-1.553-1.1-2.485-1.132-.044-.002-.086-.002-.13-.002-.874.002-1.634.304-2.42.96-.825.69-1.436 1.572-1.946 2.8-.507 1.228-.757 2.446-.807 3.892-.007.057-.007.107-.007.164-.018.796.034 1.525.156 2.233-1.79-.893-4.08-1.544-5.662-1.92a19.152 19.152 0 0 1-.16-2.13v-.2c-.028-2.617.402-4.863 1.408-7.142 1.007-2.282 2.254-3.921 4.007-5.256 1.757-1.332 3.482-1.944 5.524-1.964h.096c1.999 0 3.708.588 5.465 1.86 1.782 1.296 3.067 2.914 4.103 5.178 1.015 2.206 1.504 4.363 1.554 6.921 0 .068 0 .125.017.193zM164.89 72.62c-.262.076-.517.157-.77.243-1.43.494-2.567 1.04-3.665 1.765a9.98 9.98 0 0 0 .04-2.39c-.008-.048-.008-.087-.008-.133a10.386 10.386 0 0 0-.76-3.068c-.43-1.007-.91-1.717-1.543-2.264-.572-.494-1.114-.723-1.712-.718-.06 0-.122.003-.185.008-.671.057-1.228.385-1.756 1.028-.526.64-.872 1.436-1.121 2.492-.25 1.054-.315 2.09-.211 3.279 0 .047.01.086.01.132.115 1.153.346 2.11.757 3.079.422.996.911 1.706 1.543 2.253a4.2 4.2 0 0 0 .315.247c-.655.507-1.096.867-1.637 1.263-.346.252-.757.554-1.236.908-1.043-.978-1.858-2.207-2.57-3.828-.844-1.915-1.294-3.832-1.43-6.096v-.018c-.124-2.264.097-4.21.719-6.224.624-2.014 1.457-3.471 2.667-4.668 1.207-1.2 2.425-1.803 3.892-1.879.115-.005.227-.007.339-.007 1.33.002 2.516.444 3.744 1.425 1.332 1.065 2.339 2.425 3.182 4.343.846 1.918 1.296 3.835 1.42 6.1v.017c.06.95.053 1.845-.023 2.712z"/></g><g><path d="M151.054 37.535l20.176 4.468.567 238.665-20.745 4.863z" opacity=".16" fill="url(#i)" transform="translate(0 -26.067)"/><path d="M8.585 36.698l142.468-25.23v247.997l-142.49-23.6a4.32 4.32 0 0 1-4.32-4.32l.022-190.527a4.32 4.32 0 0 1 4.32-4.32z" fill="#5458af"/><path d="M61.197 201.011l23.997 4.338-.091-110.109 35.91-3.782V65.583l-86.73 14.47.04 20.536 26.73-2.816.144 103.238" fill="#fff"/></g></svg>