<?xml version="1.0" encoding="UTF-8" standalone="no"?>
<!-- Created with Inkscape (http://www.inkscape.org/) -->

<svg
   xmlns:dc="http://purl.org/dc/elements/1.1/"
   xmlns:cc="http://creativecommons.org/ns#"
   xmlns:rdf="http://www.w3.org/1999/02/22-rdf-syntax-ns#"
   xmlns:svg="http://www.w3.org/2000/svg"
   xmlns="http://www.w3.org/2000/svg"
   xmlns:xlink="http://www.w3.org/1999/xlink"
   xmlns:sodipodi="http://sodipodi.sourceforge.net/DTD/sodipodi-0.dtd"
   xmlns:inkscape="http://www.inkscape.org/namespaces/inkscape"
   width="48"
   height="48"
   viewBox="0 0 12.699999 12.7"
   version="1.1"
   id="svg8"
   sodipodi:docname="linux-teams.svg"
   inkscape:version="0.92.4 (5da689c313, 2019-01-14)"
   inkscape:export-filename="/home/chico/Downloads/icons/16x16.png"
   inkscape:export-xdpi="32"
   inkscape:export-ydpi="32">
  <defs
     id="defs2">
    <linearGradient
       id="h">
      <stop
         id="stop72"
         stop-color="#333"
         offset="0" />
      <stop
         id="stop74"
         stop-opacity="0"
         stop-color="#333"
         offset="1" />
    </linearGradient>
    <linearGradient
       id="g">
      <stop
         id="stop77"
         offset="0" />
      <stop
         id="stop79"
         stop-opacity="0"
         offset="1" />
    </linearGradient>
    <linearGradient
       id="e">
      <stop
         id="stop82"
         stop-color="#fefefc"
         offset="0" />
      <stop
         id="stop84"
         stop-color="#fefefc"
         offset=".757" />
      <stop
         id="stop86"
         stop-color="#d4d4d4"
         offset="1" />
    </linearGradient>
    <radialGradient
       r="14.572"
       fy="137.661"
       fx="223.196"
       cy="137.661"
       cx="223.196"
       gradientTransform="matrix(1.08578 -.03431 .03944 1.24799 -154.542 -26.543)"
       gradientUnits="userSpaceOnUse"
       id="a"
       xlink:href="#e" />
    <radialGradient
       r="14.572"
       fy="137.661"
       fx="223.196"
       cy="137.661"
       cx="223.196"
       gradientTransform="matrix(.81524 -.03431 .02961 1.24799 -129.437 -26.543)"
       gradientUnits="userSpaceOnUse"
       id="b"
       xlink:href="#e" />
    <linearGradient
       id="f">
      <stop
         id="stop91"
         stop-color="#3e2a06"
         offset="0" />
      <stop
         id="stop93"
         stop-color="#ad780a"
         offset="1" />
    </linearGradient>
    <linearGradient
       xlink:href="#f"
       id="d"
       gradientUnits="userSpaceOnUse"
       gradientTransform="matrix(.87491 0 0 .81149 60.367 62.587)"
       x1="442.039"
       y1="371.544"
       x2="490.122"
       y2="293.585" />
    <linearGradient
       xlink:href="#f"
       id="c"
       gradientUnits="userSpaceOnUse"
       x1="442.039"
       y1="371.544"
       x2="490.122"
       y2="293.585" />
    <linearGradient
       gradientUnits="userSpaceOnUse"
       y2="161.533"
       x2="171.797"
       y1="161.533"
       x1="151.052"
       id="j"
       xlink:href="#g" />
    <linearGradient
       gradientUnits="userSpaceOnUse"
       y2="161.533"
       x2="171.797"
       y1="161.533"
       x1="151.052"
       id="i"
       xlink:href="#h" />
    <clipPath
       clipPathUnits="userSpaceOnUse"
       id="clipPath1373">
      <g
         id="g1383"
         transform="translate(10.583333,-1.2765419e-5)">
        <path
           style="opacity:0.1;fill:#000000;fill-opacity:1;stroke-width:0.39687499"
           d="m -9.2604164,287.0781 a 0.52916929,0.52916929 0 0 0 -0.5291666,0.52917 v 1.1219 4.16977 1.12189 A 0.52916929,0.52916929 0 0 0 -9.2604164,294.55 H -3.96875 a 0.52916532,0.52916532 0 0 0 0.5291667,-0.52917 v -1.12189 -4.16977 -1.1219 A 0.52916532,0.52916532 0 0 0 -3.96875,287.0781 Z"
           id="path1375"
           inkscape:connector-curvature="0" />
        <path
           style="opacity:0.2;fill:#000000;fill-opacity:1;stroke-width:0.39687499"
           d="m -9.6572913,287.49255 a 0.52916929,0.52916929 0 0 0 -0.5291667,0.52917 v 0.3793 4.91236 0.37931 a 0.52916929,0.52916929 0 0 0 0.5291667,0.52916 h 5.2916664 a 0.52916532,0.52916532 0 0 0 0.5291666,-0.52916 v -0.37931 -4.91236 -0.3793 a 0.52916532,0.52916532 0 0 0 -0.5291666,-0.52917 z"
           id="path1377"
           inkscape:connector-curvature="0" />
        <path
           style="opacity:0.2;fill:#000000;fill-opacity:1;stroke-width:0.39687499"
           d="m -9.6572913,287.49255 a 0.52916929,0.52916929 0 0 0 -0.5291667,0.52917 v 0.3793 0.41445 0.3793 4.11861 0.37931 0.41444 0.37931 a 0.52916929,0.52916929 0 0 0 0.5291667,0.52916 h 5.2916664 a 0.52916532,0.52916532 0 0 0 0.5291666,-0.52916 v -0.37931 -0.41444 -4.49792 -0.3793 -0.41445 -0.3793 a 0.52916532,0.52916532 0 0 0 -0.5291666,-0.52917 z"
           id="path1379"
           inkscape:connector-curvature="0" />
        <path
           d="m -10.054164,287.87185 h 5.2916774 a 0.52916532,0.52916532 0 0 1 0.5291533,0.52917 v 5.29166 a 0.52916532,0.52916532 0 0 1 -0.5291533,0.52917 h -5.2916774 a 0.52916929,0.52916929 0 0 1 -0.529169,-0.52917 v -5.29166 a 0.52916929,0.52916929 0 0 1 0.529169,-0.52917 z"
           data-name="Back Plate"
           id="path1381"
           inkscape:connector-curvature="0"
           style="opacity:0.2;fill:#0a0b1b;fill-opacity:1;stroke-width:0.39687499" />
      </g>
    </clipPath>
    <clipPath
       clipPathUnits="userSpaceOnUse"
       id="clipPath1439">
      <path
         style="fill:#5059c9;fill-opacity:1;stroke-width:0.05444852"
         inkscape:connector-curvature="0"
         d="m 12.335012,294.16103 c -1.09e-4,-1.1e-4 -2.72e-4,-2.7e-4 -2.72e-4,-3.8e-4 -0.08598,-0.097 -0.12692,-0.27698 -0.170969,-0.46864 -0.04394,-0.19155 -0.09311,-0.39813 -0.250354,-0.53196 l -9.79e-4,-6.3e-4 c -0.0312,-0.0272 -0.06316,-0.0501 -0.09534,-0.0693 a 0.62240101,0.62240101 0 0 0 -0.09774,-0.0471 c 0.218611,-0.64827 0.132855,-1.29386 -0.08788,-1.87716 -0.270718,-0.716 -0.743494,-1.33977 -1.104597,-1.76648 -0.404171,-0.50991 -0.799467,-0.99385 -0.791681,-1.70876 0.01203,-1.09098 0.120004,-3.11424 -1.799959,-3.1169 a 2.9937428,2.9937428 0 0 0 -0.244365,0.01 c -2.145489,0.17271 -1.576394,2.43946 -1.6083,3.19841 -0.0392,0.55505 -0.151693,0.9926 -0.533541,1.53519 -0.448384,0.53321 -1.079932,1.39644 -1.379018,2.29506 -0.14113,0.42404 -0.208265,0.85625 -0.146357,1.26538 -0.01944,0.0174 -0.03784,0.0358 -0.05554,0.0544 -0.131602,0.1407 -0.228956,0.31096 -0.337309,0.42557 -0.101274,0.10117 -0.245563,0.13956 -0.404225,0.1964 -0.158664,0.0569 -0.33279,0.1408 -0.438475,0.34368 0,0 0,1.6e-4 -1.08e-4,1.6e-4 -1.64e-4,2.7e-4 -3.27e-4,6.3e-4 -5.45e-4,0.001 -0.04977,0.0928 -0.06588,0.19296 -0.06588,0.29456 0,0.0939 0.01383,0.18911 0.02788,0.28074 0.02919,0.19074 0.0588,0.37107 0.01954,0.4932 -0.125504,0.34324 -0.141675,0.58058 -0.05325,0.75285 0.08864,0.17255 0.270718,0.24862 0.476588,0.29169 0.411631,0.0859 0.969184,0.0646 1.408475,0.29751 l 0.03784,-0.0712 -0.03741,0.0714 c 0.47038,0.24594 0.94724,0.33322 1.327618,0.24637 0.275999,-0.0629 0.499837,-0.22721 0.614887,-0.48001 0.297506,-10e-4 0.624034,-0.12747 1.147121,-0.15627 0.354896,-0.0286 0.798216,0.1261 1.308072,0.0978 a 0.69628763,0.69628763 0 0 0 0.05891,0.1591 l 8.79e-4,10e-4 c 0.197648,0.3953 0.564848,0.57606 0.956279,0.54514 0.391866,-0.0309 0.80856,-0.2619 1.145433,-0.66275 l -0.0618,-0.0518 0.06224,0.0513 c 0.321028,-0.38931 0.853862,-0.55069 1.207341,-0.76375 0.176631,-0.10656 0.319885,-0.24001 0.331047,-0.43385 0.01105,-0.19361 -0.10269,-0.4107 -0.36426,-0.70097 z"
         id="path1441"
         clip-path="url(#clipPath1373)"
         transform="translate(0,-1.2765419e-5)" />
    </clipPath>
    <clipPath
       clipPathUnits="userSpaceOnUse"
       id="clipPath1445">
      <path
         style="fill:#5059c9;fill-opacity:1;stroke-width:0.05444852"
         inkscape:connector-curvature="0"
         d="m 12.335012,294.16103 c -1.09e-4,-1.1e-4 -2.72e-4,-2.7e-4 -2.72e-4,-3.8e-4 -0.08598,-0.097 -0.12692,-0.27698 -0.170969,-0.46864 -0.04394,-0.19155 -0.09311,-0.39813 -0.250354,-0.53196 l -9.79e-4,-6.3e-4 c -0.0312,-0.0272 -0.06316,-0.0501 -0.09534,-0.0693 a 0.62240101,0.62240101 0 0 0 -0.09774,-0.0471 c 0.218611,-0.64827 0.132855,-1.29386 -0.08788,-1.87716 -0.270718,-0.716 -0.743494,-1.33977 -1.104597,-1.76648 -0.404171,-0.50991 -0.799467,-0.99385 -0.791681,-1.70876 0.01203,-1.09098 0.120004,-3.11424 -1.799959,-3.1169 a 2.9937428,2.9937428 0 0 0 -0.244365,0.01 c -2.145489,0.17271 -1.576394,2.43946 -1.6083,3.19841 -0.0392,0.55505 -0.151693,0.9926 -0.533541,1.53519 -0.448384,0.53321 -1.079932,1.39644 -1.379018,2.29506 -0.14113,0.42404 -0.208265,0.85625 -0.146357,1.26538 -0.01944,0.0174 -0.03784,0.0358 -0.05554,0.0544 -0.131602,0.1407 -0.228956,0.31096 -0.337309,0.42557 -0.101274,0.10117 -0.245563,0.13956 -0.404225,0.1964 -0.158664,0.0569 -0.33279,0.1408 -0.438475,0.34368 0,0 0,1.6e-4 -1.08e-4,1.6e-4 -1.64e-4,2.7e-4 -3.27e-4,6.3e-4 -5.45e-4,0.001 -0.04977,0.0928 -0.06588,0.19296 -0.06588,0.29456 0,0.0939 0.01383,0.18911 0.02788,0.28074 0.02919,0.19074 0.0588,0.37107 0.01954,0.4932 -0.125504,0.34324 -0.141675,0.58058 -0.05325,0.75285 0.08864,0.17255 0.270718,0.24862 0.476588,0.29169 0.411631,0.0859 0.969184,0.0646 1.408475,0.29751 l 0.03784,-0.0712 -0.03741,0.0714 c 0.47038,0.24594 0.94724,0.33322 1.327618,0.24637 0.275999,-0.0629 0.499837,-0.22721 0.614887,-0.48001 0.297506,-10e-4 0.624034,-0.12747 1.147121,-0.15627 0.354896,-0.0286 0.798216,0.1261 1.308072,0.0978 a 0.69628763,0.69628763 0 0 0 0.05891,0.1591 l 8.79e-4,10e-4 c 0.197648,0.3953 0.564848,0.57606 0.956279,0.54514 0.391866,-0.0309 0.80856,-0.2619 1.145433,-0.66275 l -0.0618,-0.0518 0.06224,0.0513 c 0.321028,-0.38931 0.853862,-0.55069 1.207341,-0.76375 0.176631,-0.10656 0.319885,-0.24001 0.331047,-0.43385 0.01105,-0.19361 -0.10269,-0.4107 -0.36426,-0.70097 z"
         id="path1447"
         clip-path="url(#clipPath1373)"
         transform="translate(0,-1.2765419e-5)" />
    </clipPath>
    <clipPath
       clipPathUnits="userSpaceOnUse"
       id="clipPath1451">
      <path
         style="fill:#5059c9;fill-opacity:1;stroke-width:0.05444852"
         inkscape:connector-curvature="0"
         d="m 12.335012,294.16103 c -1.09e-4,-1.1e-4 -2.72e-4,-2.7e-4 -2.72e-4,-3.8e-4 -0.08598,-0.097 -0.12692,-0.27698 -0.170969,-0.46864 -0.04394,-0.19155 -0.09311,-0.39813 -0.250354,-0.53196 l -9.79e-4,-6.3e-4 c -0.0312,-0.0272 -0.06316,-0.0501 -0.09534,-0.0693 a 0.62240101,0.62240101 0 0 0 -0.09774,-0.0471 c 0.218611,-0.64827 0.132855,-1.29386 -0.08788,-1.87716 -0.270718,-0.716 -0.743494,-1.33977 -1.104597,-1.76648 -0.404171,-0.50991 -0.799467,-0.99385 -0.791681,-1.70876 0.01203,-1.09098 0.120004,-3.11424 -1.799959,-3.1169 a 2.9937428,2.9937428 0 0 0 -0.244365,0.01 c -2.145489,0.17271 -1.576394,2.43946 -1.6083,3.19841 -0.0392,0.55505 -0.151693,0.9926 -0.533541,1.53519 -0.448384,0.53321 -1.079932,1.39644 -1.379018,2.29506 -0.14113,0.42404 -0.208265,0.85625 -0.146357,1.26538 -0.01944,0.0174 -0.03784,0.0358 -0.05554,0.0544 -0.131602,0.1407 -0.228956,0.31096 -0.337309,0.42557 -0.101274,0.10117 -0.245563,0.13956 -0.404225,0.1964 -0.158664,0.0569 -0.33279,0.1408 -0.438475,0.34368 0,0 0,1.6e-4 -1.08e-4,1.6e-4 -1.64e-4,2.7e-4 -3.27e-4,6.3e-4 -5.45e-4,0.001 -0.04977,0.0928 -0.06588,0.19296 -0.06588,0.29456 0,0.0939 0.01383,0.18911 0.02788,0.28074 0.02919,0.19074 0.0588,0.37107 0.01954,0.4932 -0.125504,0.34324 -0.141675,0.58058 -0.05325,0.75285 0.08864,0.17255 0.270718,0.24862 0.476588,0.29169 0.411631,0.0859 0.969184,0.0646 1.408475,0.29751 l 0.03784,-0.0712 -0.03741,0.0714 c 0.47038,0.24594 0.94724,0.33322 1.327618,0.24637 0.275999,-0.0629 0.499837,-0.22721 0.614887,-0.48001 0.297506,-10e-4 0.624034,-0.12747 1.147121,-0.15627 0.354896,-0.0286 0.798216,0.1261 1.308072,0.0978 a 0.69628763,0.69628763 0 0 0 0.05891,0.1591 l 8.79e-4,10e-4 c 0.197648,0.3953 0.564848,0.57606 0.956279,0.54514 0.391866,-0.0309 0.80856,-0.2619 1.145433,-0.66275 l -0.0618,-0.0518 0.06224,0.0513 c 0.321028,-0.38931 0.853862,-0.55069 1.207341,-0.76375 0.176631,-0.10656 0.319885,-0.24001 0.331047,-0.43385 0.01105,-0.19361 -0.10269,-0.4107 -0.36426,-0.70097 z"
         id="path1453"
         clip-path="url(#clipPath1373)"
         transform="translate(0,-1.2765419e-5)" />
    </clipPath>
    <clipPath
       clipPathUnits="userSpaceOnUse"
       id="clipPath1455">
      <path
         style="opacity:0.2;fill:#0a0b1b;fill-opacity:1;stroke-width:0.39687499"
         inkscape:connector-curvature="0"
         id="path1457"
         data-name="Back Plate"
         d="m 0.529169,287.87185 h 5.2916773 a 0.52916532,0.52916532 0 0 1 0.5291534,0.52917 v 5.29166 a 0.52916532,0.52916532 0 0 1 -0.5291534,0.52917 H 0.529169 A 0.52916929,0.52916929 0 0 1 0,293.69268 v -5.29166 a 0.52916929,0.52916929 0 0 1 0.529169,-0.52917 z" />
    </clipPath>
  </defs>
  <sodipodi:namedview
     id="base"
     pagecolor="#ffffff"
     bordercolor="#666666"
     borderopacity="1.0"
     inkscape:pageopacity="0.0"
     inkscape:pageshadow="2"
     inkscape:zoom="5.6568542"
     inkscape:cx="-5.5582116"
     inkscape:cy="21.708176"
     inkscape:document-units="px"
     inkscape:current-layer="layer1"
     showgrid="false"
     inkscape:showpageshadow="false"
     units="px"
     showborder="true"
     inkscape:pagecheckerboard="false"
     inkscape:window-width="1850"
     inkscape:window-height="1016"
     inkscape:window-x="70"
     inkscape:window-y="27"
     inkscape:window-maximized="1"
     fit-margin-top="0"
     fit-margin-left="0"
     fit-margin-right="0"
     fit-margin-bottom="0">
    <inkscape:grid
       type="xygrid"
       id="grid1549" />
  </sodipodi:namedview>
  <metadata
     id="metadata5">
    <rdf:RDF>
      <cc:Work
         rdf:about="">
        <dc:format>image/svg+xml</dc:format>
        <dc:type
           rdf:resource="http://purl.org/dc/dcmitype/StillImage" />
        <dc:title></dc:title>
      </cc:Work>
    </rdf:RDF>
  </metadata>
  <g
     inkscape:label="Layer 1"
     inkscape:groupmode="layer"
     id="layer1"
     transform="translate(0,-284.29998)">
    <path
       style="fill:#5059c9;fill-opacity:1;stroke-width:0.05444852"
       inkscape:connector-curvature="0"
       d="m 12.335012,294.16103 c -1.09e-4,-1.1e-4 -2.72e-4,-2.7e-4 -2.72e-4,-3.8e-4 -0.08598,-0.097 -0.12692,-0.27698 -0.170969,-0.46864 -0.04394,-0.19155 -0.09311,-0.39813 -0.250354,-0.53196 l -9.79e-4,-6.3e-4 c -0.0312,-0.0272 -0.06316,-0.0501 -0.09534,-0.0693 a 0.62240101,0.62240101 0 0 0 -0.09774,-0.0471 c 0.218611,-0.64827 0.132855,-1.29386 -0.08788,-1.87716 -0.270718,-0.716 -0.743494,-1.33977 -1.104597,-1.76648 -0.404171,-0.50991 -0.7994675,-0.99385 -0.7916815,-1.70876 0.01203,-1.09098 0.120004,-3.11424 -1.799959,-3.1169 a 2.9937428,2.9937428 0 0 0 -0.244365,0.01 c -2.145489,0.17271 -1.576394,2.43946 -1.6083,3.19841 -0.0392,0.55505 -0.151693,0.9926 -0.533541,1.53519 -0.448384,0.53321 -1.0799315,1.39644 -1.3790175,2.29506 -0.14113,0.42404 -0.208265,0.85625 -0.146357,1.26538 -0.01944,0.0174 -0.03784,0.0358 -0.05554,0.0544 -0.131602,0.1407 -0.228956,0.31096 -0.337309,0.42557 -0.101274,0.10117 -0.245563,0.13956 -0.404225,0.1964 -0.158664,0.0569 -0.33279,0.1408 -0.438475,0.34368 0,0 0,1.6e-4 -1.08e-4,1.6e-4 -1.64e-4,2.7e-4 -3.27e-4,6.3e-4 -5.45e-4,0.001 -0.04977,0.0928 -0.06588,0.19296 -0.06588,0.29456 0,0.0939 0.01383,0.18911 0.02788,0.28074 0.02919,0.19074 0.0588,0.37107 0.01954,0.4932 -0.125504,0.34324 -0.141675,0.58058 -0.05325,0.75285 0.08864,0.17255 0.270718,0.24862 0.476588,0.29169 0.411631,0.0859 0.969184,0.0646 1.408475,0.29751 l 0.03784,-0.0712 -0.03741,0.0714 c 0.4703795,0.24594 0.9472395,0.33322 1.3276175,0.24637 0.275999,-0.0629 0.499837,-0.22721 0.614887,-0.48001 0.297506,-10e-4 0.624034,-0.12747 1.147121,-0.15627 0.354896,-0.0286 0.798216,0.1261 1.308072,0.0978 a 0.69628763,0.69628763 0 0 0 0.05891,0.1591 l 8.79e-4,10e-4 c 0.197648,0.3953 0.564848,0.57606 0.9562795,0.54514 0.391866,-0.0309 0.80856,-0.2619 1.145433,-0.66275 l -0.0618,-0.0518 0.06224,0.0513 c 0.321028,-0.38931 0.853862,-0.55069 1.207341,-0.76375 0.176631,-0.10656 0.319885,-0.24001 0.331047,-0.43385 0.01105,-0.19361 -0.10269,-0.4107 -0.36426,-0.70097 z"
       id="path1387" />
    <g
       style="fill:#ffffff;fill-opacity:1"
       id="g1391"
       transform="matrix(0.05444852,0,0,0.05444852,-1.8208955,283.21312)">
      <path
         inkscape:connector-curvature="0"
         d="m 215.736,172.504 c -0.073,0.398 -0.133,0.807 -0.177,1.218 -0.64,0.224 -1.28,0.505 -1.926,0.856 -4.01,2.196 -6.2,6.177 -7.418,11.064 -1.215,4.88 -1.566,10.78 -1.9,17.412 v 0.005 c -0.205,3.334 -1.579,7.845 -2.968,12.623 -13.994,9.983 -33.415,14.307 -49.906,3.051 -9.32027,-7.40394 -9.51071,-10.18076 -8.109,-13.575 1.004,-2.703 5.655,-5.728 2.436,-10.086 -3.218,-4.356 -5.247,-8.876 -13.256,-13.789 v -0.002 c -5.886,-3.66 -9.175,-8.147 -10.715,-13.017 -1.543,-4.874 -1.327,-10.143 -0.138,-15.344 2.28,-9.984 8.134,-19.694 11.87,-25.788 1.005,-0.74 0.36,1.374 -3.783,9.065 -3.71,7.03 -10.65,23.256 -1.15,35.923 0.255,-9.013 2.407,-18.206 6.02,-26.806 5.265,-11.93 16.274,-32.623 17.148,-49.114 0.453,0.328 2,1.374 2.69,1.767 0.002,0.002 0.002,0.002 0.006,0.002 2.019,1.189 3.536,2.927 5.5,4.506 1.97,1.582 4.429,2.948 8.144,3.164 0.357,0.021 0.705,0.031 1.046,0.031 3.83,0 6.817,-1.249 9.305,-2.672 2.703,-1.545 4.863,-3.257 6.91,-3.924 0.003,-0.002 0.006,-0.002 0.008,-0.002 4.327,-1.353 7.764,-3.746 9.72,-6.536 3.363,13.25 11.179,32.387 16.204,41.725 2.672,4.954 8.915,18.181 10.28,28.166 0.71,4.755 -5.135,6.26 -5.841,10.077 z M 195.094,70.006 c 0.021,2.625 -0.432,4.86 -1.428,7.142 -0.567,1.301 -1.22,2.394 -2.003,3.34 -0.266,-0.127 -0.542,-0.249 -0.828,-0.366 -0.8768,-0.375873 -1.76168,-0.732624 -2.654,-1.07 -0.786,-0.296 -1.4,-0.499 -2.032,-0.717 0.458,-0.554 1.361,-1.208 1.697,-2.027 0.51,-1.236 0.76,-2.443 0.807,-3.882 0,-0.058 0.018,-0.107 0.018,-0.175 0.028,-1.379 -0.154,-2.557 -0.557,-3.765 -0.421,-1.267 -0.958,-2.178 -1.733,-2.935 -0.778,-0.757 -1.553,-1.1 -2.485,-1.132 -0.044,-0.002 -0.086,-0.002 -0.13,-0.002 -0.874,0.002 -1.634,0.304 -2.42,0.96 -0.825,0.69 -1.436,1.572 -1.946,2.8 -0.507,1.228 -0.757,2.446 -0.807,3.892 -0.007,0.057 -0.007,0.107 -0.007,0.164 -0.018,0.796 0.034,1.525 0.156,2.233 -1.79,-0.893 -4.08,-1.544 -5.662,-1.92 -0.0929,-0.706471 -0.14633,-1.417576 -0.16,-2.13 v -0.2 c -0.028,-2.617 0.402,-4.863 1.408,-7.142 1.007,-2.282 2.254,-3.921 4.007,-5.256 1.757,-1.332 3.482,-1.944 5.524,-1.964 h 0.096 c 1.999,0 3.708,0.588 5.465,1.86 1.782,1.296 3.067,2.914 4.103,5.178 1.015,2.206 1.504,4.363 1.554,6.921 0,0.068 0,0.125 0.017,0.193 z M 164.89,72.62 c -0.262,0.076 -0.517,0.157 -0.77,0.243 -1.43,0.494 -2.567,1.04 -3.665,1.765 0.10904,-0.792187 0.12247,-1.594608 0.04,-2.39 -0.008,-0.048 -0.008,-0.087 -0.008,-0.133 -0.0953,-1.055451 -0.35163,-2.090096 -0.76,-3.068 -0.43,-1.007 -0.91,-1.717 -1.543,-2.264 -0.572,-0.494 -1.114,-0.723 -1.712,-0.718 -0.06,0 -0.122,0.003 -0.185,0.008 -0.671,0.057 -1.228,0.385 -1.756,1.028 -0.526,0.64 -0.872,1.436 -1.121,2.492 -0.25,1.054 -0.315,2.09 -0.211,3.279 0,0.047 0.01,0.086 0.01,0.132 0.115,1.153 0.346,2.11 0.757,3.079 0.422,0.996 0.911,1.706 1.543,2.253 0.10101,0.08729 0.20613,0.16972 0.315,0.247 -0.655,0.507 -1.096,0.867 -1.637,1.263 -0.346,0.252 -0.757,0.554 -1.236,0.908 -1.043,-0.978 -1.858,-2.207 -2.57,-3.828 -0.844,-1.915 -1.294,-3.832 -1.43,-6.096 v -0.018 c -0.124,-2.264 0.097,-4.21 0.719,-6.224 0.624,-2.014 1.457,-3.471 2.667,-4.668 1.207,-1.2 2.425,-1.803 3.892,-1.879 0.115,-0.005 0.227,-0.007 0.339,-0.007 1.33,0.002 2.516,0.444 3.744,1.425 1.332,1.065 2.339,2.425 3.182,4.343 0.846,1.918 1.296,3.835 1.42,6.1 v 0.017 c 0.06,0.95 0.053,1.845 -0.023,2.712 z"
         id="path1389"
         style="fill:#ffffff;fill-opacity:1"
         sodipodi:nodetypes="cccccccccccccccccccccccscccccccccccccccccccccccccccccccsccccccccccccccccccccccccccccccccccc" />
    </g>
    <g
       style="fill:#ffffff;fill-opacity:1"
       id="g106"
       transform="matrix(0.05444852,0,0,0.05444852,-1.820895,283.21312)">
      <path
         inkscape:connector-curvature="0"
         d="m 215.736,172.504 c -0.073,0.398 -0.133,0.807 -0.177,1.218 -0.64,0.224 -1.28,0.505 -1.926,0.856 -4.01,2.196 -6.2,6.177 -7.418,11.064 -1.215,4.88 -1.566,10.78 -1.9,17.412 v 0.005 c -0.205,3.334 -1.579,7.845 -2.968,12.623 -13.994,9.983 -33.415,14.307 -49.906,3.051 -1.116,-1.766 -2.399,-3.517 -3.718,-5.245 a 230.367,230.367 0 0 0 -2.568,-3.281 c 1.691,0.002 -2.925,-1.724 -1.762,-2.25 1.447,-0.658 -0.566,-1.446 -0.061,-2.799 1.004,-2.703 5.655,-5.728 2.436,-10.086 -3.218,-4.356 -5.247,-8.876 -13.256,-13.789 v -0.002 c -5.886,-3.66 -9.175,-8.147 -10.715,-13.017 -1.543,-4.874 -1.327,-10.143 -0.138,-15.344 2.28,-9.984 8.134,-19.694 11.87,-25.788 1.005,-0.74 0.36,1.374 -3.783,9.065 -3.71,7.03 -10.65,23.256 -1.15,35.923 0.255,-9.013 2.407,-18.206 6.02,-26.806 5.265,-11.93 16.274,-32.623 17.148,-49.114 0.453,0.328 2,1.374 2.69,1.767 0.002,0.002 0.002,0.002 0.006,0.002 2.019,1.189 3.536,2.927 5.5,4.506 1.97,1.582 4.429,2.948 8.144,3.164 0.357,0.021 0.705,0.031 1.046,0.031 3.83,0 6.817,-1.249 9.305,-2.672 2.703,-1.545 4.863,-3.257 6.91,-3.924 0.003,-0.002 0.006,-0.002 0.008,-0.002 4.327,-1.353 7.764,-3.746 9.72,-6.536 3.363,13.25 11.179,32.387 16.204,41.725 2.672,4.954 8.915,18.181 10.28,28.166 0.71,4.755 -5.135,6.26 -5.841,10.077 z M 195.094,70.006 c 0.021,2.625 -0.432,4.86 -1.428,7.142 -0.567,1.301 -1.22,2.394 -2.003,3.34 -0.266,-0.127 -0.542,-0.249 -0.828,-0.366 a 65.766,65.766 0 0 0 -2.654,-1.07 c -0.786,-0.296 -1.4,-0.499 -2.032,-0.717 0.458,-0.554 1.361,-1.208 1.697,-2.027 0.51,-1.236 0.76,-2.443 0.807,-3.882 0,-0.058 0.018,-0.107 0.018,-0.175 0.028,-1.379 -0.154,-2.557 -0.557,-3.765 -0.421,-1.267 -0.958,-2.178 -1.733,-2.935 -0.778,-0.757 -1.553,-1.1 -2.485,-1.132 -0.044,-0.002 -0.086,-0.002 -0.13,-0.002 -0.874,0.002 -1.634,0.304 -2.42,0.96 -0.825,0.69 -1.436,1.572 -1.946,2.8 -0.507,1.228 -0.757,2.446 -0.807,3.892 -0.007,0.057 -0.007,0.107 -0.007,0.164 -0.018,0.796 0.034,1.525 0.156,2.233 -1.79,-0.893 -4.08,-1.544 -5.662,-1.92 a 19.152,19.152 0 0 1 -0.16,-2.13 v -0.2 c -0.028,-2.617 0.402,-4.863 1.408,-7.142 1.007,-2.282 2.254,-3.921 4.007,-5.256 1.757,-1.332 3.482,-1.944 5.524,-1.964 h 0.096 c 1.999,0 3.708,0.588 5.465,1.86 1.782,1.296 3.067,2.914 4.103,5.178 1.015,2.206 1.504,4.363 1.554,6.921 0,0.068 0,0.125 0.017,0.193 z M 164.89,72.62 c -0.262,0.076 -0.517,0.157 -0.77,0.243 -1.43,0.494 -2.567,1.04 -3.665,1.765 a 9.98,9.98 0 0 0 0.04,-2.39 c -0.008,-0.048 -0.008,-0.087 -0.008,-0.133 a 10.386,10.386 0 0 0 -0.76,-3.068 c -0.43,-1.007 -0.91,-1.717 -1.543,-2.264 -0.572,-0.494 -1.114,-0.723 -1.712,-0.718 -0.06,0 -0.122,0.003 -0.185,0.008 -0.671,0.057 -1.228,0.385 -1.756,1.028 -0.526,0.64 -0.872,1.436 -1.121,2.492 -0.25,1.054 -0.315,2.09 -0.211,3.279 0,0.047 0.01,0.086 0.01,0.132 0.115,1.153 0.346,2.11 0.757,3.079 0.422,0.996 0.911,1.706 1.543,2.253 a 4.2,4.2 0 0 0 0.315,0.247 c -0.655,0.507 -1.096,0.867 -1.637,1.263 -0.346,0.252 -0.757,0.554 -1.236,0.908 -1.043,-0.978 -1.858,-2.207 -2.57,-3.828 -0.844,-1.915 -1.294,-3.832 -1.43,-6.096 v -0.018 c -0.124,-2.264 0.097,-4.21 0.719,-6.224 0.624,-2.014 1.457,-3.471 2.667,-4.668 1.207,-1.2 2.425,-1.803 3.892,-1.879 0.115,-0.005 0.227,-0.007 0.339,-0.007 1.33,0.002 2.516,0.444 3.744,1.425 1.332,1.065 2.339,2.425 3.182,4.343 0.846,1.918 1.296,3.835 1.42,6.1 v 0.017 c 0.06,0.95 0.053,1.845 -0.023,2.712 z"
         id="path104"
         style="fill:#ffffff;fill-opacity:1" />
    </g>
    <rect
       style="fill:none;stroke-width:0.39687499"
       y="284.29999"
       x="6.9999992e-08"
       width="12.7"
       height="12.7"
       id="rect32" />
    <path
       clip-path="url(#clipPath1455)"
       id="path1385"
       d="m 12.335012,294.16103 c -1.09e-4,-1.1e-4 -2.72e-4,-2.7e-4 -2.72e-4,-3.8e-4 -0.08598,-0.097 -0.12692,-0.27698 -0.170969,-0.46864 -0.04394,-0.19155 -0.09311,-0.39813 -0.250354,-0.53196 l -9.79e-4,-6.3e-4 c -0.0312,-0.0272 -0.06316,-0.0501 -0.09534,-0.0693 a 0.62240101,0.62240101 0 0 0 -0.09774,-0.0471 c 0.218611,-0.64827 0.132855,-1.29386 -0.08788,-1.87716 -0.270718,-0.716 -0.743494,-1.33977 -1.104597,-1.76648 -0.404171,-0.50991 -0.799467,-0.99385 -0.791681,-1.70876 0.01203,-1.09098 0.120004,-3.11424 -1.799959,-3.1169 a 2.9937428,2.9937428 0 0 0 -0.244365,0.01 c -2.145489,0.17271 -1.576394,2.43946 -1.6083,3.19841 -0.0392,0.55505 -0.151693,0.9926 -0.533541,1.53519 -0.448384,0.53321 -1.079932,1.39644 -1.379018,2.29506 -0.14113,0.42404 -0.208265,0.85625 -0.146357,1.26538 -0.01944,0.0174 -0.03784,0.0358 -0.05554,0.0544 -0.131602,0.1407 -0.228956,0.31096 -0.337309,0.42557 -0.101274,0.10117 -0.245563,0.13956 -0.404225,0.1964 -0.158664,0.0569 -0.33279,0.1408 -0.438475,0.34368 0,0 0,1.6e-4 -1.08e-4,1.6e-4 -1.64e-4,2.7e-4 -3.27e-4,6.3e-4 -5.45e-4,0.001 -0.04977,0.0928 -0.06588,0.19296 -0.06588,0.29456 0,0.0939 0.01383,0.18911 0.02788,0.28074 0.02919,0.19074 0.0588,0.37107 0.01954,0.4932 -0.125504,0.34324 -0.141675,0.58058 -0.05325,0.75285 0.08864,0.17255 0.270718,0.24862 0.476588,0.29169 0.411631,0.0859 0.969184,0.0646 1.408475,0.29751 l 0.03784,-0.0712 -0.03741,0.0714 c 0.47038,0.24594 0.94724,0.33322 1.327618,0.24637 0.275999,-0.0629 0.499837,-0.22721 0.614887,-0.48001 0.297506,-10e-4 0.624034,-0.12747 1.147121,-0.15627 0.354896,-0.0286 0.798216,0.1261 1.308072,0.0978 a 0.69628763,0.69628763 0 0 0 0.05891,0.1591 l 8.79e-4,10e-4 c 0.197648,0.3953 0.564848,0.57606 0.956279,0.54514 0.391866,-0.0309 0.80856,-0.2619 1.145433,-0.66275 l -0.0618,-0.0518 0.06224,0.0513 c 0.321028,-0.38931 0.853862,-0.55069 1.207341,-0.76375 0.176631,-0.10656 0.319885,-0.24001 0.331047,-0.43385 0.01105,-0.19361 -0.10269,-0.4107 -0.36426,-0.70097 z"
       inkscape:connector-curvature="0"
       style="fill:#5059c9;fill-opacity:1;stroke-width:0.05444852" />
    <rect
       style="fill:none;stroke-width:0.39687499"
       y="284.29999"
       x="1.0030619e-06"
       width="12.7"
       height="12.7"
       id="rect1393" />
    <path
       inkscape:connector-curvature="0"
       id="path1395"
       d="M 1.3229166,287.0781 A 0.52916929,0.52916929 0 0 0 0.79375,287.60727 v 1.1219 4.16977 1.12189 A 0.52916929,0.52916929 0 0 0 1.3229166,294.55 H 6.614583 a 0.52916532,0.52916532 0 0 0 0.5291667,-0.52917 v -1.12189 -4.16977 -1.1219 A 0.52916532,0.52916532 0 0 0 6.614583,287.0781 Z"
       style="opacity:0.1;fill:#000000;fill-opacity:1;stroke-width:0.39687499"
       clip-path="url(#clipPath1439)" />
    <path
       inkscape:connector-curvature="0"
       id="path1397"
       d="m 0.9260417,287.49255 a 0.52916929,0.52916929 0 0 0 -0.5291667,0.52917 v 0.3793 4.91236 0.37931 a 0.52916929,0.52916929 0 0 0 0.5291667,0.52916 h 5.2916664 a 0.52916532,0.52916532 0 0 0 0.5291666,-0.52916 v -0.37931 -4.91236 -0.3793 a 0.52916532,0.52916532 0 0 0 -0.5291666,-0.52917 z"
       style="opacity:0.2;fill:#000000;fill-opacity:1;stroke-width:0.39687499"
       clip-path="url(#clipPath1451)" />
    <path
       inkscape:connector-curvature="0"
       id="path1399"
       d="m 0.9260417,287.49255 a 0.52916929,0.52916929 0 0 0 -0.5291667,0.52917 v 0.3793 0.41445 0.3793 4.11861 0.37931 0.41444 0.37931 a 0.52916929,0.52916929 0 0 0 0.5291667,0.52916 h 5.2916664 a 0.52916532,0.52916532 0 0 0 0.5291666,-0.52916 v -0.37931 -0.41444 -4.49792 -0.3793 -0.41445 -0.3793 a 0.52916532,0.52916532 0 0 0 -0.5291666,-0.52917 z"
       style="opacity:0.2;fill:#000000;fill-opacity:1;stroke-width:0.39687499"
       clip-path="url(#clipPath1445)" />
    <path
       style="fill:#4b53bc;stroke-width:0.39687499"
       inkscape:connector-curvature="0"
       id="Back_Plate"
       data-name="Back Plate"
       d="M 0.52916936,287.47498 H 5.8208463 a 0.52916532,0.52916532 0 0 1 0.5291534,0.52917 v 5.29166 a 0.52916532,0.52916532 0 0 1 -0.5291534,0.52917 H 0.52916936 A 0.52916929,0.52916929 0 0 1 6.9999991e-8,293.29581 v -5.29166 A 0.52916929,0.52916929 0 0 1 0.52916936,287.47498 Z" />
    <path
       style="fill:#ffffff;stroke-width:0.39807731"
       inkscape:connector-curvature="0"
       d="M 4.7624998,289.59165 H 3.5718749 v 3.175 h -0.79375 v -3.175 h -1.190625 v -0.79375 h 3.1749999 z"
       id="path30"
       sodipodi:nodetypes="ccccccccc" />
    <text
       xml:space="preserve"
       style="font-style:normal;font-variant:normal;font-weight:bold;font-stretch:normal;font-size:8.46666622px;line-height:1.25;font-family:'Tlwg Typo';-inkscape-font-specification:'Tlwg Typo Bold';letter-spacing:0px;word-spacing:0px;fill:#ffffff;fill-opacity:1;stroke:none;stroke-width:0.26458332"
       x="5.5397134"
       y="295.8259"
       id="text1595"><tspan
         sodipodi:role="line"
         id="tspan1593"
         x="5.5397134"
         y="303.65756"
         style="font-style:normal;font-variant:normal;font-weight:bold;font-stretch:normal;font-size:8.46666622px;font-family:sans-serif;-inkscape-font-specification:'sans-serif Bold';fill:#ffffff;stroke-width:0.26458332" /></text>
  </g>
</svg>
